<?xml version="1.0" encoding="UTF-8"?><!DOCTYPE svg PUBLIC "-//W3C//DTD SVG 1.1//EN" "http://www.w3.org/Graphics/SVG/1.1/DTD/svg11.dtd"><svg xmlns="http://www.w3.org/2000/svg"><symbol id="shape-svg-dribbble" viewBox="0 0 24 24"><path d="M12 0C5.372 0 0 5.373 0 12s5.372 12 12 12 12-5.373 12-12S18.628 0 12 0zm9.885 11.441c-2.575-.422-4.943-.445-7.103-.073a42.153 42.153 0 0 0-.767-1.68c2.31-1 4.165-2.358 5.548-4.082a9.863 9.863 0 0 1 2.322 5.835zm-3.842-7.282c-1.205 1.554-2.868 2.783-4.986 3.68a46.287 46.287 0 0 0-3.488-5.438A9.894 9.894 0 0 1 12 2.087c2.275 0 4.368.779 6.043 2.072zM7.527 3.166a44.59 44.59 0 0 1 3.537 5.381c-2.43.715-5.331 1.082-8.684 1.105a9.931 9.931 0 0 1 5.147-6.486zM2.087 12l.013-.256c3.849-.005 7.169-.448 9.95-1.322.233.475.456.952.67 1.432-3.38 1.057-6.165 3.222-8.337 6.48A9.865 9.865 0 0 1 2.087 12zm3.829 7.81c1.969-3.088 4.482-5.098 7.598-6.027a39.137 39.137 0 0 1 2.043 7.46c-3.349 1.291-6.953.666-9.641-1.433zm11.586.43a41.098 41.098 0 0 0-1.92-6.897c1.876-.265 3.94-.196 6.199.196a9.923 9.923 0 0 1-4.279 6.701z"/></symbol><symbol id="shape-svg-email" viewBox="0 0 24 24"><path d="M12 12.713L.015 3h23.97L12 12.713zm0 2.574L0 5.562V21h24V5.562l-12 9.725z"/></symbol><symbol id="shape-svg-instagram" viewBox="0 0 24 24"><path d="M12 2.163c3.204 0 3.584.012 4.85.07 3.252.148 4.771 1.691 4.919 4.919.058 1.265.069 1.645.069 4.849 0 3.205-.012 3.584-.069 4.849-.149 3.225-1.664 4.771-4.919 4.919-1.266.058-1.644.07-4.85.07-3.204 0-3.584-.012-4.849-.07-3.26-.149-4.771-1.699-4.919-4.92-.058-1.265-.07-1.644-.07-4.849 0-3.204.013-3.583.07-4.849.149-3.227 1.664-4.771 4.919-4.919 1.266-.057 1.645-.069 4.849-.069zM12 0C8.741 0 8.333.014 7.053.072 2.695.272.273 2.69.073 7.052.014 8.333 0 8.741 0 12c0 3.259.014 3.668.072 4.948.2 4.358 2.618 6.78 6.98 6.98C8.333 23.986 8.741 24 12 24c3.259 0 3.668-.014 4.948-.072 4.354-.2 6.782-2.618 6.979-6.98.059-1.28.073-1.689.073-4.948 0-3.259-.014-3.667-.072-4.947-.196-4.354-2.617-6.78-6.979-6.98C15.668.014 15.259 0 12 0zm0 5.838a6.162 6.162 0 1 0 0 12.324 6.162 6.162 0 0 0 0-12.324zM12 16a4 4 0 1 1 0-8 4 4 0 0 1 0 8zm6.406-11.845a1.44 1.44 0 1 0 0 2.881 1.44 1.44 0 0 0 0-2.881z"/></symbol><symbol id="shape-svg-linkedin" viewBox="0 0 24 24"><path d="M0 0v24h24V0H0zm8 19H5V8h3v11zM6.5 6.732c-.966 0-1.75-.79-1.75-1.764s.784-1.764 1.75-1.764 1.75.79 1.75 1.764-.783 1.764-1.75 1.764zM20 19h-3v-5.604c0-3.368-4-3.113-4 0V19h-3V8h3v1.765c1.397-2.586 7-2.777 7 2.476V19z"/></symbol><symbol id="shape-svg-spotify"><path d="M19.098 10.638C15.23 8.341 8.85 8.13 5.157 9.251a1.121 1.121 0 1 1-.651-2.148c4.239-1.287 11.285-1.038 15.738 1.605a1.123 1.123 0 0 1-1.146 1.93zm-.126 3.403a.937.937 0 0 1-1.287.308c-3.225-1.982-8.142-2.557-11.958-1.399a.936.936 0 1 1-.543-1.79c4.358-1.322 9.776-.682 13.48 1.595.44.27.578.847.308 1.286zm-1.469 3.267a.746.746 0 0 1-1.028.249c-2.818-1.722-6.365-2.111-10.542-1.157a.748.748 0 0 1-.333-1.458c4.571-1.045 8.492-.595 11.655 1.338a.747.747 0 0 1 .248 1.028zM12 0C5.373 0 0 5.373 0 12c0 6.628 5.373 12 12 12 6.628 0 12-5.372 12-12 0-6.627-5.372-12-12-12z"/></symbol></svg>